. 
 
http://www.torrenting.com          :     Once & For all ;)


               www . Torrenting . Com 

(((((((((((((= Enjoy No RAR releases =))))))))))))))))))))


...................................NFO:....................................

. 

                  
                                                  
                               
                                           
                   
                    
                         
                        
                      
                   
                   
                       
                           
                           
                                
                                       
                                    
                              SINCE 2011 
  





[b][size=4][color=red]i[/color][color=grey]N[/color][color=red]i[/color][color=grey]T[/color][color=red]i[/color][color=grey]ALan[/color][color=blue]I[/color][color=grey]me[/color] Presents............[/size][/b]


[center][size=7][color=darkorange][i][b]Children Who Chase Lost Voices From Deep Below[/b][/i][/color][/size]
[IMG]http://i.imgur.com/AaqHX.png[/IMG][/center]



[IMG]http://i.imgur.com/FDxr4.png[/IMG]

[b][color=darkorange]General[/color]
[color=blue]Encoder                          : unsentletter [iNiTiAlanIme]
Language                         : English[/color]
Complete name                    : Children Who Chase Lost Voices From Deep Below [iNiTiALanIme ENCODE]\Children Who Chase Lost Voices from Deep Below [iNiTiALanIme ENCODE].avi
Format                           : AVI
Format/Info                      : Audio Video Interleave
Format profile                   : OpenDML
File size                        : 1.47 GiB
Duration                         : 1h 55mn
Overall bit rate                 : 1 814 Kbps
Movie name                       : Children Who Chase Lost Voices from Deep Below [iNiTiALanIme ENCODE]
Writing application              : Lavf52.78.4
Original source form/Name        : HOSHI_O_KODOMO

[color=darkoarange]Video[/color]
ID                               : 0
Format                           : AVC
Format/Info                      : Advanced Video Codec
Codec ID                         : H264
Duration                         : 1h 55mn
Bit rate                         : 1 354 Kbps
Width                            : 720 pixels
Height                           : 404 pixels
Display aspect ratio             : 16:9
Frame rate                       : 23.976 fps
Color space                      : YUV
Chroma subsampling               : 4:2:0
Bits/(Pixel*Frame)               : 0.194
Stream size                      : 1.10 GiB (75%)

[color=darkoarange]Audio[/color]
ID                               : 1
Format                           : AC-3
Format/Info                      : Audio Coding 3
Mode extension                   : CM (complete main)
Codec ID                         : 2000
Duration                         : 37mn 49s
Bit rate mode                    : Constant
Bit rate                         : 448 Kbps
Channel(s)                       : 6 channels
Channel positions                : Front: L C R, Side: L R, LFE
Sampling rate                    : 48.0 KHz
Bit depth                        : 16 bits
Stream size                      : 121 MiB (8%)
Alignment                        : Aligned on interleaves
Interleave, duration             : 98 ms (2.35 video frames)
Interleave, preload duration     : 32 ms[/b]



[IMG]http://i.imgur.com/r6AUo.png[/IMG]

A coming of age story involving young love and a mysterious music, coming from a crystal radio left as a memento by an absent father, that leads a young heroine deep into a hidden world. 


[IMG]http://i.imgur.com/KvHYd.png[/IMG]

Hisako Kanemoto  ...  Asuna Watase (voice)  
Kazuhiko Inoue  ...  Ryuji Morisaki (voice)
Miyu Irino  ...  Shin / Shun (voice)
Rina Hidaka  ...  Mana (voice)
Fumiko Orikasa  ...  Asuna's Mother (voice)
Sumi Shimamoto  ...  Risa (voice)
Junko Takeuchi  ...  Mimi (voice)  



[IMG]http://i.imgur.com/cOWRT.png[/IMG]

[IMG]http://i.imgur.com/5DR3i.png[/IMG]
[IMG]http://i.imgur.com/Hekxl.png[/IMG]
[IMG]http://i.imgur.com/m1rQK.png[/IMG]
[IMG]http://i.imgur.com/MD1eD.png[/IMG]
[IMG]http://i.imgur.com/UBAlC.png[/IMG]
[IMG]http://i.imgur.com/CUgtc.png[/IMG]
[IMG]http://i.imgur.com/v1B93.png[/IMG]
[IMG]http://i.imgur.com/hfNZm.png[/IMG]
[IMG]http://i.imgur.com/vN0up.png[/IMG]
[IMG]http://i.imgur.com/HkVJl.png[/IMG]



[IMG]http://i.imgur.com/Dyf12.png[/IMG]



[IMG]http://i.imgur.com/eyvAn.png[/IMG]

[color=green]all encodes by unsentletter are done in a generic format to work with **XBOX360**, PS3, **Some Media Players**, Android and Symbian. 
**tested streaming to XBOX360 & Media Player using Vuze Transcoder and Wild Media Server... For best results I recomend Vuze Transcoder** [/color]



[IMG]http://i.imgur.com/xxzGO.png[/IMG]

[b][size=4][color=red]i[/color][color=grey]N[/color][color=red]i[/color][color=grey]T[/color][color=red]i[/color][color=grey]ALan[/color][color=blue]I[/color][color=grey]me[/color][/size][/b] [color=darkorange]gives greets to[/color] [color=blue]unsentletter, bigspawn, jaiwalla, deadlySniper, amartis, paranoid53, DiVERSiTY RG, BHRG, PRESTiGE RG, all anime groups and fansub groups, all the staff at our upload sites & all the people who make p2p what it is[/color]
[color=red]Remember p[/color][color=blue]2[/color][color=red]p is about more than free movies and music its a community be involved!! Dont Hit and Run !! Seed back what you leech!![/color]


[IMG]http://i.imgur.com/4Azym.png[/IMG]


[b][size=4][color=red]i[/color][color=grey]N[/color][color=red]i[/color][color=grey]T[/color][color=red]i[/color][color=grey]ALan[/color][color=blue]I[/color][color=grey]me[/color][/size][/b][color=darkorange] Is looking for members. Have you got something to offer? DO you want to be part of our team?  Wanted -anime sources- encoders - seedbox's anything else you may have to offer -  contact us at[/color][color=cyan] initialanime@yahoo.com[/color]


[IMG]http://i.imgur.com/7m52g.png[/IMG]










INITIALANIME 2011